<svg width="332" height="96" viewBox="0 0 332 96" fill="none" xmlns="http://www.w3.org/2000/svg">
<rect x="1" y="1" width="330" height="94" rx="47" stroke="black" stroke-width="2"/>
<path d="M137.328 52.512C140.368 53.536 141.888 55.584 141.888 58.656C141.888 60.992 141.008 62.8 139.248 64.08C137.488 65.36 134.864 66 131.376 66H117.6V40.176H130.8C134.032 40.176 136.56 40.768 138.384 41.952C140.208 43.104 141.12 44.736 141.12 46.848C141.12 48.128 140.784 49.264 140.112 50.256C139.472 51.216 138.544 51.968 137.328 52.512ZM124.464 50.784H130.128C132.752 50.784 134.064 49.856 134.064 48C134.064 46.176 132.752 45.264 130.128 45.264H124.464V50.784ZM130.752 60.912C133.504 60.912 134.88 59.968 134.88 58.08C134.88 57.088 134.56 56.368 133.92 55.92C133.28 55.44 132.272 55.2 130.896 55.2H124.464V60.912H130.752ZM159.555 66.384C156.835 66.384 154.387 65.824 152.211 64.704C150.067 63.552 148.387 61.968 147.171 59.952C145.955 57.936 145.347 55.648 145.347 53.088C145.347 50.528 145.955 48.24 147.171 46.224C148.387 44.208 150.067 42.64 152.211 41.52C154.387 40.368 156.835 39.792 159.555 39.792C162.275 39.792 164.707 40.368 166.851 41.52C168.995 42.64 170.675 44.208 171.891 46.224C173.107 48.24 173.715 50.528 173.715 53.088C173.715 55.648 173.107 57.936 171.891 59.952C170.675 61.968 168.995 63.552 166.851 64.704C164.707 65.824 162.275 66.384 159.555 66.384ZM159.555 60.24C161.475 60.24 163.043 59.6 164.259 58.32C165.507 57.008 166.131 55.264 166.131 53.088C166.131 50.912 165.507 49.184 164.259 47.904C163.043 46.592 161.475 45.936 159.555 45.936C157.635 45.936 156.051 46.592 154.803 47.904C153.555 49.184 152.931 50.912 152.931 53.088C152.931 55.264 153.555 57.008 154.803 58.32C156.051 59.6 157.635 60.24 159.555 60.24ZM204.354 40.176V66H197.202V62.976C196.242 64.096 195.058 64.944 193.65 65.52C192.274 66.096 190.802 66.384 189.234 66.384C185.842 66.384 183.138 65.408 181.122 63.456C179.138 61.504 178.146 58.608 178.146 54.768V40.176H185.634V53.664C185.634 57.824 187.378 59.904 190.866 59.904C192.69 59.904 194.146 59.328 195.234 58.176C196.322 56.992 196.866 55.248 196.866 52.944V40.176H204.354ZM191.058 37.392C185.426 37.392 182.594 34.912 182.562 29.952H187.458C187.49 31.072 187.794 31.952 188.37 32.592C188.978 33.2 189.858 33.504 191.01 33.504C192.162 33.504 193.042 33.2 193.65 32.592C194.29 31.952 194.61 31.072 194.61 29.952H199.602C199.57 34.912 196.722 37.392 191.058 37.392ZM244.515 39.792C247.747 39.792 250.307 40.752 252.195 42.672C254.115 44.56 255.075 47.408 255.075 51.216V66H247.587V52.368C247.587 50.32 247.155 48.8 246.291 47.808C245.459 46.784 244.259 46.272 242.691 46.272C240.931 46.272 239.539 46.848 238.515 48C237.491 49.12 236.979 50.8 236.979 53.04V66H229.491V52.368C229.491 48.304 227.859 46.272 224.595 46.272C222.867 46.272 221.491 46.848 220.467 48C219.443 49.12 218.931 50.8 218.931 53.04V66H211.443V40.176H218.595V43.152C219.555 42.064 220.723 41.232 222.099 40.656C223.507 40.08 225.043 39.792 226.707 39.792C228.531 39.792 230.179 40.16 231.651 40.896C233.123 41.6 234.307 42.64 235.203 44.016C236.259 42.672 237.587 41.632 239.187 40.896C240.819 40.16 242.595 39.792 244.515 39.792ZM287.088 40.176V66H279.936V62.976C278.976 64.096 277.792 64.944 276.384 65.52C275.008 66.096 273.536 66.384 271.968 66.384C268.576 66.384 265.872 65.408 263.856 63.456C261.872 61.504 260.88 58.608 260.88 54.768V40.176H268.368V53.664C268.368 57.824 270.112 59.904 273.6 59.904C275.424 59.904 276.88 59.328 277.968 58.176C279.056 56.992 279.6 55.248 279.6 52.944V40.176H287.088Z" fill="black"/>
<g clip-path="url(#clip0_30_160)">
<path d="M65 13L63.5797 13.0492L62.1734 13.1969L60.7812 13.4368L59.4172 13.769L58.0812 14.1997L56.7945 14.7165L55.557 15.3194L54.3758 16.0085L53.2578 16.7714L52.2172 17.6143L51.2539 18.5248L50.375 19.4907L49.5875 20.5182L48.8914 21.601L48.2937 22.7207L47.8086 23.8835L47.4219 25.0771L47.1406 26.2891L46.9789 27.5195L46.9227 28.75L46.9789 30.6818L47.1336 32.6075L47.4078 34.5209L47.7875 36.422L48.2727 38.3046L48.8633 40.1688L49.5523 41.996L50.3469 43.7986L51.2469 45.5582L52.2383 47.287L52.8992 48.2591L53.6516 49.1758L53.8766 49.4834L54.0102 49.8218L54.0453 50.1848L53.9891 50.5478L53.8344 50.88L53.6094 51.1814L53.3 51.4214L52.9344 51.5998L52.5406 51.7044L49.9461 52.1228L47.3797 52.6149L44.8273 53.181L42.3031 53.827L39.807 54.5529L37.3391 55.3527L36.3336 55.7465L35.3844 56.2264L34.4914 56.7924L33.6687 57.4261L32.9305 58.1336L32.2766 58.8965L31.7141 59.7209L31.243 60.5884L30.6031 62.0711L30.0617 63.5784L29.6187 65.1104L29.2742 66.6607L29.0281 68.2234L29 68.8694L29.0703 69.5031L29.2391 70.1245L29.4992 70.7213L29.8508 71.2812L30.2797 71.798L30.8 72.2532L31.3695 72.647L32.0094 72.9669L32.6844 73.2191L33.3945 73.373L37.5641 74.0312L41.7547 74.5911L45.9594 75.0587L50.1781 75.434L54.4039 75.717L58.6437 75.9077L62.8836 76H67.1164L71.3563 75.9077L75.5961 75.717L77.6211 75.5816C77.7336 74.4775 78.2861 73.443 79.182 72.6593L79.5969 72.2963L79.4984 72.3024L75.3641 72.5731L71.2156 72.7577L67.0742 72.85H62.9188L58.7773 72.7577L54.6359 72.5731L50.5016 72.3024L46.3672 71.9333L42.2609 71.4719L38.1547 70.9243L34.0766 70.2845L33.6547 70.1614L33.268 69.9584L32.9656 69.6692L32.7477 69.337L32.6281 68.9556L32.6211 68.568L32.8461 67.1714L33.1484 65.7994L33.5422 64.4336L34.0203 63.0924L34.5898 61.7758L34.9555 61.1236L35.3984 60.4961L35.9187 59.9301L36.5164 59.4194L37.1773 58.9703L37.8945 58.5889L38.6539 58.2874L41.0023 57.5245L43.3789 56.8354L45.7836 56.2202L48.2164 55.6788L50.6633 55.2112L53.1242 54.8113L53.9047 54.6452L54.65 54.3807L55.3461 54.0238L55.9648 53.5809L56.4992 53.0641L56.9562 52.4857L57.2937 51.8521L57.5258 51.1814L57.6453 50.4924V49.791L57.5187 49.102L57.2867 48.4313L56.9422 47.7977L56.4922 47.2193L55.9227 46.5303L55.4305 45.8043L54.5094 44.217L53.6867 42.5928L52.9555 40.9378L52.3227 39.2521L51.7812 37.5417L51.3312 35.8067L50.9867 34.0595L50.7336 32.2999L50.5859 30.528L50.5297 28.7562L50.593 27.6549L50.7547 26.5659L51.0289 25.4954L51.4086 24.4434L51.8937 23.4282L52.4703 22.45L53.1523 21.5271L53.9187 20.6535L54.7695 19.8414L55.7047 19.097L56.7031 18.4325L57.7648 17.8419L58.8828 17.3313L60.05 16.9129L61.2523 16.5807L62.4898 16.3469L63.7414 16.1992L64.993 16.15L66.2586 16.1992L67.5102 16.3469L68.7406 16.5807L69.943 16.9129L71.1102 17.3313L72.2352 17.8419L73.2969 18.4325L74.2953 19.097L75.2305 19.8414L76.0742 20.6535L76.8477 21.5271L77.5297 22.45L78.1062 23.4282L78.5914 24.4434L78.9711 25.4954L79.2453 26.5659L79.407 27.6549L79.4633 28.7562L79.4141 30.528L79.2664 32.2999L79.0133 34.0595L78.6617 35.8067L78.2188 37.5417L77.6773 39.2521L77.0445 40.9378L76.3062 42.5928L75.4836 44.217L74.5695 45.8043L74.0773 46.5303L73.5078 47.2193L73.0508 47.7977L72.7133 48.4313L72.4742 49.102L72.3477 49.791V50.4924L72.4672 51.1814L72.6992 51.8521L73.0437 52.4857L73.4937 53.0641L74.0281 53.5809L74.6539 54.0238L75.35 54.3807L76.0953 54.6452L76.8687 54.8113L77.7266 54.9528C77.4641 53.894 77.6255 52.7884 78.1836 51.8213L77.4664 51.7044L77.0656 51.5998L76.7 51.4214L76.3977 51.1814L76.1656 50.88L76.018 50.5478L75.9547 50.1848L75.9969 49.8218L76.1305 49.4834L76.3484 49.1758L77.1078 48.2591L77.7687 47.287L78.7602 45.5582L79.6531 43.7986L80.4477 41.996L81.1437 40.1688L81.7344 38.3046L82.2195 36.422L82.5922 34.5209L82.8664 32.6075L83.0281 30.6818L83.0773 28.75L83.0281 27.5195L82.8594 26.2891L82.5781 25.0771L82.1984 23.8835L81.7062 22.7207L81.1086 21.601L80.4195 20.5182L79.632 19.4907L78.7461 18.5248L77.7898 17.6143L76.7492 16.7714L75.6312 16.0085L74.45 15.3194L73.2055 14.7165L71.9188 14.1997L70.5898 13.769L69.2258 13.4368L67.8266 13.1969L66.4203 13.0492L65 13ZM83 53.95L93.8 63.4H68.6V66.55H93.8L83 76H88.4L101 64.975L88.4 53.95H83Z" fill="black"/>
</g>
<defs>
<clipPath id="clip0_30_160">
<rect width="72" height="63" fill="white" transform="translate(29 13)"/>
</clipPath>
</defs>
</svg>
